<svg xmlns="http://www.w3.org/2000/svg" enable-background="new 0 0 3000 2500" viewBox="0 0 3000 2500"><rect width="2918.6" height="2432.2" x="40.7" y="33.9" fill="none"/><g opacity=".15"><path fill="#030611" d="M1728.9,2069.8c0,106.2,175.4,200.8,391.8,211.2s391.8-67.3,391.8-173.6c0-106.2-175.4-200.8-391.8-211.2    S1728.9,1963.6,1728.9,2069.8z" opacity="0"/><path fill="#030611" d="M1735.4,2070.1c0,104.5,172.5,197.4,385.3,207.6c212.8,10.2,385.3-66.2,385.3-170.6    c0-104.5-172.5-197.4-385.3-207.6S1735.4,1965.7,1735.4,2070.1z" opacity=".037"/><path fill="#030611" d="M1742,2070.5c0,102.7,169.5,194,378.7,204.1c209.1,10,378.7-65.1,378.7-167.7c0-102.7-169.5-194-378.7-204.1    C1911.5,1892.7,1742,1967.8,1742,2070.5z" opacity=".074"/><path fill="#030611" d="M1748.6,2070.8c0,100.9,166.6,190.7,372.1,200.5c205.5,9.9,372.1-63.9,372.1-164.8    c0-100.9-166.6-190.7-372.1-200.5S1748.6,1969.9,1748.6,2070.8z" opacity=".111"/><path fill="#030611" d="M1755.1,2071.1c0,99.1,163.7,187.3,365.6,197s365.6-62.8,365.6-161.9c0-99.1-163.7-187.3-365.6-197    C1918.8,1899.5,1755.1,1972,1755.1,2071.1z" opacity=".148"/><path fill="#030611" d="M1761.7,2071.4c0,97.3,160.7,183.9,359,193.5c198.3,9.5,359-61.7,359-159c0-97.3-160.7-183.9-359-193.5    C1922.4,1902.9,1761.7,1974.1,1761.7,2071.4z" opacity=".185"/><path fill="#030611" d="M1768.3,2071.7c0,95.6,157.8,180.6,352.4,189.9c194.6,9.3,352.4-60.5,352.4-156.1    c0-95.6-157.8-180.6-352.4-189.9C1926,1906.3,1768.3,1976.2,1768.3,2071.7z" opacity=".222"/><path fill="#030611" d="M1774.8,2072c0,93.8,154.8,177.2,345.9,186.4c191,9.2,345.9-59.4,345.9-153.2c0-93.8-154.8-177.2-345.9-186.4    S1774.8,1978.3,1774.8,2072z" opacity=".259"/><path fill="#030611" d="M1781.4,2072.3c0,92,151.9,173.9,339.3,182.8c187.4,9,339.3-58.3,339.3-150.3c0-92-151.9-173.9-339.3-182.8    C1933.3,1913.1,1781.4,1980.4,1781.4,2072.3z" opacity=".296"/><path fill="#030611" d="M1788,2072.7c0,90.2,149,170.5,332.7,179.3c183.8,8.8,332.7-57.2,332.7-147.4c0-90.2-149-170.5-332.7-179.3    C1936.9,1916.5,1788,1982.4,1788,2072.7z" opacity=".333"/><path fill="#030611" d="M1794.5,2073c0,88.4,146,167.1,326.2,175.8s326.2-56,326.2-144.5c0-88.4-146-167.1-326.2-175.8    C1940.6,1919.9,1794.5,1984.5,1794.5,2073z" opacity=".37"/><path fill="#030611" d="M1801.1,2073.3c0,86.6,143.1,163.8,319.6,172.2s319.6-54.9,319.6-141.6c0-86.6-143.1-163.8-319.6-172.2    S1801.1,1986.6,1801.1,2073.3z" opacity=".407"/><path fill="#030611" d="M1807.7,2073.6c0,84.9,140.1,160.4,313,168.7c172.9,8.3,313-53.8,313-138.7c0-84.9-140.1-160.4-313-168.7    C1947.8,1926.7,1807.7,1988.7,1807.7,2073.6z" opacity=".444"/><path fill="#030611" d="M1814.2,2073.9c0,83.1,137.2,157,306.5,165.2c169.3,8.1,306.5-52.7,306.5-135.7s-137.2-157-306.5-165.2    C1951.4,1930.1,1814.2,1990.8,1814.2,2073.9z" opacity=".481"/><path fill="#030611" d="M1820.8,2074.2c0,81.3,134.3,153.7,299.9,161.6c165.6,7.9,299.9-51.5,299.9-132.8    c0-81.3-134.3-153.7-299.9-161.6C1955.1,1933.5,1820.8,1992.9,1820.8,2074.2z" opacity=".518"/><path fill="#030611" d="M1827.4,2074.5c0,79.5,131.3,150.3,293.3,158.1c162,7.8,293.3-50.4,293.3-129.9    c0-79.5-131.3-150.3-293.3-158.1C1958.7,1936.8,1827.4,1995,1827.4,2074.5z" opacity=".556"/><path fill="#030611" d="M1833.9,2074.9c0,77.7,128.4,146.9,286.8,154.5c158.4,7.6,286.8-49.3,286.8-127    c0-77.7-128.4-146.9-286.8-154.5S1833.9,1997.1,1833.9,2074.9z" opacity=".593"/><path fill="#030611" d="M1840.5,2075.2c0,76,125.4,143.6,280.2,151s280.2-48.1,280.2-124.1c0-76-125.4-143.6-280.2-151    C1965.9,1943.6,1840.5,1999.2,1840.5,2075.2z" opacity=".63"/><path fill="#030611" d="M1847.1,2075.5c0,74.2,122.5,140.2,273.6,147.5c151.1,7.3,273.6-47,273.6-121.2    c0-74.2-122.5-140.2-273.6-147.5C1969.6,1947,1847.1,2001.3,1847.1,2075.5z" opacity=".667"/><path fill="#030611" d="M1853.6,2075.8c0,72.4,119.6,136.8,267.1,143.9c147.5,7.1,267.1-45.9,267.1-118.3    c0-72.4-119.6-136.8-267.1-143.9C1973.2,1950.4,1853.6,2003.4,1853.6,2075.8z" opacity=".704"/><path fill="#030611" d="M1860.2,2076.1c0,70.6,116.6,133.5,260.5,140.4c143.9,6.9,260.5-44.8,260.5-115.4    c0-70.6-116.6-133.5-260.5-140.4C1976.8,1953.8,1860.2,2005.5,1860.2,2076.1z" opacity=".741"/><path fill="#030611" d="M1866.8,2076.4c0,68.8,113.7,130.1,253.9,136.8s253.9-43.6,253.9-112.5c0-68.8-113.7-130.1-253.9-136.8    C1980.4,1957.2,1866.8,2007.6,1866.8,2076.4z" opacity=".778"/><path fill="#030611" d="M1873.3,2076.8c0,67.1,110.7,126.7,247.4,133.3s247.4-42.5,247.4-109.6c0-67.1-110.7-126.7-247.4-133.3    S1873.3,2009.7,1873.3,2076.8z" opacity=".815"/><path fill="#030611" d="M1879.9,2077.1c0,65.3,107.8,123.4,240.8,129.8c133,6.4,240.8-41.4,240.8-106.7    c0-65.3-107.8-123.4-240.8-129.8C1987.7,1964,1879.9,2011.8,1879.9,2077.1z" opacity=".852"/><path fill="#030611" d="M1886.5,2077.4c0,63.5,104.9,120,234.2,126.2c129.4,6.2,234.2-40.2,234.2-103.7s-104.9-120-234.2-126.2    C1991.3,1967.4,1886.5,2013.9,1886.5,2077.4z" opacity=".889"/><path fill="#030611" d="M1893,2077.7c0,61.7,101.9,116.7,227.7,122.7c125.7,6,227.7-39.1,227.7-100.8    c0-61.7-101.9-116.7-227.7-122.7C1995,1970.8,1893,2016,1893,2077.7z" opacity=".926"/><path fill="#030611" d="M1899.6,2078c0,59.9,99,113.3,221.1,119.1c122.1,5.9,221.1-38,221.1-97.9c0-59.9-99-113.3-221.1-119.1    C1998.6,1974.2,1899.6,2018.1,1899.6,2078z" opacity=".963"/><path fill="#030611" d="M1906.2,2078.3c0,58.2,96,109.9,214.5,115.6c118.5,5.7,214.5-36.9,214.5-95c0-58.2-96-109.9-214.5-115.6    C2002.2,1977.6,1906.2,2020.2,1906.2,2078.3z"/></g><g opacity=".15"><path fill="#030611" d="M462.6,2042c0,106.2,175.4,200.8,391.8,211.2c216.4,10.4,391.8-67.3,391.8-173.6    c0-106.2-175.4-200.8-391.8-211.2C638,1858,462.6,1935.7,462.6,2042z" opacity="0"/><path fill="#030611" d="M469.2,2042.3c0,104.5,172.5,197.4,385.3,207.6s385.3-66.2,385.3-170.6c0-104.5-172.5-197.4-385.3-207.6    S469.2,1937.8,469.2,2042.3z" opacity=".037"/><path fill="#030611" d="M475.8,2042.6c0,102.7,169.5,194,378.7,204.1s378.7-65.1,378.7-167.7c0-102.7-169.5-194-378.7-204.1    S475.8,1939.9,475.8,2042.6z" opacity=".074"/><path fill="#030611" d="M482.3,2042.9c0,100.9,166.6,190.7,372.1,200.5c205.5,9.9,372.1-63.9,372.1-164.8    c0-100.9-166.6-190.7-372.1-200.5C648.9,1868.2,482.3,1942,482.3,2042.9z" opacity=".111"/><path fill="#030611" d="M488.9,2043.2c0,99.1,163.7,187.3,365.6,197c201.9,9.7,365.6-62.8,365.6-161.9c0-99.1-163.7-187.3-365.6-197    S488.9,1944.1,488.9,2043.2z" opacity=".148"/><path fill="#030611" d="M495.5,2043.5c0,97.3,160.7,183.9,359,193.5c198.3,9.5,359-61.7,359-159c0-97.3-160.7-183.9-359-193.5    C656.2,1875,495.5,1946.2,495.5,2043.5z" opacity=".185"/><path fill="#030611" d="M502,2043.8c0,95.6,157.8,180.6,352.4,189.9s352.4-60.6,352.4-156.1c0-95.6-157.8-180.6-352.4-189.9    C659.8,1878.4,502,1948.3,502,2043.8z" opacity=".222"/><path fill="#030611" d="M508.6,2044.2c0,93.8,154.8,177.2,345.9,186.4c191,9.2,345.9-59.4,345.9-153.2    c0-93.8-154.8-177.2-345.9-186.4C663.4,1881.8,508.6,1950.4,508.6,2044.2z" opacity=".259"/><path fill="#030611" d="M515.2,2044.5c0,92,151.9,173.9,339.3,182.8s339.3-58.3,339.3-150.3c0-92-151.9-173.9-339.3-182.8    C667.1,1885.2,515.2,1952.5,515.2,2044.5z" opacity=".296"/><path fill="#030611" d="M521.7,2044.8c0,90.2,149,170.5,332.7,179.3s332.7-57.2,332.7-147.4c0-90.2-149-170.5-332.7-179.3    C670.7,1888.6,521.7,1954.6,521.7,2044.8z" opacity=".333"/><path fill="#030611" d="M528.3,2045.1c0,88.4,146,167.1,326.2,175.8c180.1,8.6,326.2-56,326.2-144.5c0-88.4-146-167.1-326.2-175.8    S528.3,1956.7,528.3,2045.1z" opacity=".37"/><path fill="#030611" d="M534.9,2045.4c0,86.6,143.1,163.8,319.6,172.2c176.5,8.5,319.6-54.9,319.6-141.6    c0-86.6-143.1-163.8-319.6-172.2S534.9,1958.8,534.9,2045.4z" opacity=".407"/><path fill="#030611" d="M541.4,2045.7c0,84.9,140.1,160.4,313,168.7c172.9,8.3,313-53.8,313-138.7c0-84.9-140.1-160.4-313-168.7    S541.4,1960.9,541.4,2045.7z" opacity=".444"/><path fill="#030611" d="M548,2046c0,83.1,137.2,157,306.5,165.2s306.5-52.7,306.5-135.7c0-83.1-137.2-157-306.5-165.2    C685.2,1902.2,548,1963,548,2046z" opacity=".481"/><path fill="#030611" d="M554.6,2046.4c0,81.3,134.3,153.7,299.9,161.6s299.9-51.5,299.9-132.8c0-81.3-134.3-153.7-299.9-161.6    C688.8,1905.6,554.6,1965.1,554.6,2046.4z" opacity=".518"/><path fill="#030611" d="M561.1,2046.7c0,79.5,131.3,150.3,293.3,158.1c162,7.8,293.3-50.4,293.3-129.9    c0-79.5-131.3-150.3-293.3-158.1S561.1,1967.1,561.1,2046.7z" opacity=".556"/><path fill="#030611" d="M567.7,2047c0,77.7,128.4,146.9,286.8,154.5c158.4,7.6,286.8-49.3,286.8-127c0-77.7-128.4-146.9-286.8-154.5    S567.7,1969.2,567.7,2047z" opacity=".593"/><path fill="#030611" d="M574.3,2047.3c0,76,125.4,143.6,280.2,151c154.7,7.4,280.2-48.1,280.2-124.1c0-76-125.4-143.6-280.2-151    C699.7,1915.8,574.3,1971.3,574.3,2047.3z" opacity=".63"/><path fill="#030611" d="M580.8,2047.6c0,74.2,122.5,140.2,273.6,147.5c151.1,7.3,273.6-47,273.6-121.2    c0-74.2-122.5-140.2-273.6-147.5S580.8,1973.4,580.8,2047.6z" opacity=".667"/><path fill="#030611" d="M587.4,2047.9c0,72.4,119.6,136.8,267.1,143.9s267.1-45.9,267.1-118.3s-119.6-136.8-267.1-143.9    S587.4,1975.5,587.4,2047.9z" opacity=".704"/><path fill="#030611" d="M594,2048.3c0,70.6,116.6,133.5,260.5,140.4s260.5-44.8,260.5-115.4c0-70.6-116.6-133.5-260.5-140.4    C710.6,1926,594,1977.6,594,2048.3z" opacity=".741"/><path fill="#030611" d="M600.5,2048.6c0,68.8,113.7,130.1,253.9,136.8s253.9-43.6,253.9-112.5c0-68.8-113.7-130.1-253.9-136.8    S600.5,1979.7,600.5,2048.6z" opacity=".778"/><path fill="#030611" d="M607.1,2048.9c0,67.1,110.7,126.7,247.4,133.3c136.6,6.6,247.4-42.5,247.4-109.6    c0-67.1-110.7-126.7-247.4-133.3C717.8,1932.8,607.1,1981.8,607.1,2048.9z" opacity=".815"/><path fill="#030611" d="M613.7,2049.2c0,65.3,107.8,123.4,240.8,129.8c133,6.4,240.8-41.4,240.8-106.7    c0-65.3-107.8-123.4-240.8-129.8C721.5,1936.2,613.7,1983.9,613.7,2049.2z" opacity=".852"/><path fill="#030611" d="M620.2,2049.5c0,63.5,104.9,120,234.2,126.2s234.2-40.2,234.2-103.7c0-63.5-104.9-120-234.2-126.2    S620.2,1986,620.2,2049.5z" opacity=".889"/><path fill="#030611" d="M626.8,2049.8c0,61.7,101.9,116.7,227.7,122.7s227.7-39.1,227.7-100.8c0-61.7-101.9-116.7-227.7-122.7    C728.7,1943,626.8,1988.1,626.8,2049.8z" opacity=".926"/><path fill="#030611" d="M633.4,2050.1c0,59.9,99,113.3,221.1,119.1c122.1,5.9,221.1-38,221.1-97.9c0-59.9-99-113.3-221.1-119.1    C732.3,1946.4,633.4,1990.2,633.4,2050.1z" opacity=".963"/><path fill="#030611" d="M639.9,2050.5c0,58.2,96,109.9,214.5,115.6c118.5,5.7,214.5-36.9,214.5-95c0-58.2-96-109.9-214.5-115.6    C736,1949.8,639.9,1992.3,639.9,2050.5z"/></g><g opacity=".15"><path fill="#030611" d="M291.5,1181.5c0,106.2,175.4,200.8,391.8,211.2s391.8-67.3,391.8-173.6S899.8,1018.3,683.4,1008    C467,997.6,291.6,1075.3,291.5,1181.5z" opacity="0"/><path fill="#030611" d="M298.1,1181.8c0,104.5,172.5,197.4,385.3,207.6c212.8,10.2,385.3-66.2,385.3-170.6s-172.5-197.4-385.3-207.6    C470.6,1001,298.1,1077.4,298.1,1181.8z" opacity=".037"/><path fill="#030611" d="M304.7,1182.1c0,102.7,169.5,194,378.7,204.1c209.1,10,378.7-65.1,378.7-167.7s-169.5-194-378.7-204.1    C474.2,1004.4,304.7,1079.5,304.7,1182.1z" opacity=".074"/><path fill="#030611" d="M311.2,1182.5c0,100.9,166.6,190.7,372.1,200.5c205.5,9.9,372.1-63.9,372.1-164.8    c0-100.9-166.6-190.7-372.1-200.5C477.9,1007.8,311.2,1081.6,311.2,1182.5z" opacity=".111"/><path fill="#030611" d="M317.8,1182.8c0,99.1,163.7,187.3,365.6,197c201.9,9.7,365.6-62.8,365.6-161.9c0-99.1-163.7-187.3-365.6-197    C481.5,1011.2,317.8,1083.7,317.8,1182.8z" opacity=".148"/><path fill="#030611" d="M324.4,1183.1c0,97.3,160.7,183.9,359,193.5c198.3,9.5,359-61.7,359-159c0-97.3-160.7-183.9-359-193.5    C485.1,1014.6,324.4,1085.8,324.4,1183.1z" opacity=".185"/><path fill="#030611" d="M330.9,1183.4c0,95.6,157.8,180.6,352.4,189.9s352.4-60.5,352.4-156.1c0-95.6-157.8-180.6-352.4-189.9    S330.9,1087.9,330.9,1183.4z" opacity=".222"/><path fill="#030611" d="M337.5,1183.7c0,93.8,154.8,177.2,345.9,186.4c191,9.2,345.9-59.4,345.9-153.2    c0-93.8-154.8-177.2-345.9-186.4C492.4,1021.4,337.5,1090,337.5,1183.7z" opacity=".259"/><path fill="#030611" d="M344.1,1184c0,92,151.9,173.9,339.3,182.8s339.3-58.3,339.3-150.3c0-92-151.9-173.9-339.3-182.8    S344.1,1092,344.1,1184z" opacity=".296"/><path fill="#030611" d="M350.6,1184.4c0,90.2,149,170.5,332.7,179.3c183.8,8.8,332.7-57.2,332.7-147.4s-149-170.5-332.7-179.3    S350.6,1094.1,350.6,1184.4z" opacity=".333"/><path fill="#030611" d="M357.2,1184.7c0,88.4,146,167.1,326.2,175.8c180.1,8.6,326.2-56,326.2-144.5c0-88.4-146-167.1-326.2-175.8    C503.2,1031.6,357.2,1096.2,357.2,1184.7z" opacity=".37"/><path fill="#030611" d="M363.8,1185c0,86.6,143.1,163.8,319.6,172.2s319.6-54.9,319.6-141.6c0-86.7-143.1-163.8-319.6-172.2    C506.9,1035,363.8,1098.3,363.8,1185z" opacity=".407"/><path fill="#030611" d="M370.3,1185.3c0,84.9,140.1,160.4,313,168.7c172.9,8.3,313-53.8,313-138.7c0-84.9-140.1-160.4-313-168.7    C510.5,1038.4,370.3,1100.4,370.3,1185.3z" opacity=".444"/><path fill="#030611" d="M376.9,1185.6c0,83.1,137.2,157,306.5,165.2c169.3,8.1,306.5-52.7,306.5-135.7c0-83.1-137.2-157-306.5-165.2    C514.1,1041.7,376.9,1102.5,376.9,1185.6z" opacity=".481"/><path fill="#030611" d="M383.5,1185.9c0,81.3,134.3,153.7,299.9,161.6s299.9-51.5,299.9-132.8c0-81.3-134.3-153.7-299.9-161.6    C517.7,1045.1,383.5,1104.6,383.5,1185.9z" opacity=".518"/><path fill="#030611" d="M390,1186.2c0,79.5,131.3,150.3,293.3,158.1s293.3-50.4,293.3-129.9c0-79.5-131.3-150.3-293.3-158.1    S390,1106.7,390,1186.2z" opacity=".556"/><path fill="#030611" d="M396.6,1186.6c0,77.7,128.4,146.9,286.8,154.5c158.4,7.6,286.8-49.3,286.8-127    c0-77.7-128.4-146.9-286.8-154.5C525,1051.9,396.6,1108.8,396.6,1186.6z" opacity=".593"/><path fill="#030611" d="M403.2,1186.9c0,76,125.4,143.6,280.2,151s280.2-48.1,280.2-124.1c0-76-125.4-143.6-280.2-151    S403.2,1110.9,403.2,1186.9z" opacity=".63"/><path fill="#030611" d="M409.7,1187.2c0,74.2,122.5,140.2,273.6,147.5c151.1,7.3,273.6-47,273.6-121.2    c0-74.2-122.5-140.2-273.6-147.5S409.7,1113,409.7,1187.2z" opacity=".667"/><path fill="#030611" d="M416.3,1187.5c0,72.4,119.6,136.8,267.1,143.9s267.1-45.9,267.1-118.3c0-72.4-119.6-136.8-267.1-143.9    C535.9,1062.1,416.3,1115.1,416.3,1187.5z" opacity=".704"/><path fill="#030611" d="M422.9,1187.8c0,70.6,116.6,133.5,260.5,140.4s260.5-44.8,260.5-115.4c0-70.6-116.6-133.5-260.5-140.4    C539.5,1065.5,422.9,1117.2,422.9,1187.8z" opacity=".741"/><path fill="#030611" d="M429.4,1188.1c0,68.8,113.7,130.1,253.9,136.8s253.9-43.6,253.9-112.5c0-68.8-113.7-130.1-253.9-136.8    S429.4,1119.3,429.4,1188.1z" opacity=".778"/><path fill="#030611" d="M436,1188.4c0,67.1,110.7,126.7,247.4,133.3c136.6,6.6,247.4-42.5,247.4-109.6    c0-67.1-110.7-126.7-247.4-133.3C546.8,1072.3,436,1121.4,436,1188.4z" opacity=".815"/><path fill="#030611" d="M442.6,1188.8c0,65.3,107.8,123.4,240.8,129.8s240.8-41.4,240.8-106.7c0-65.3-107.8-123.4-240.8-129.8    S442.6,1123.5,442.6,1188.8z" opacity=".852"/><path fill="#030611" d="M449.1,1189.1c0,63.5,104.9,120,234.2,126.2c129.4,6.2,234.2-40.2,234.2-103.7c0-63.5-104.9-120-234.2-126.2    C554,1079.1,449.1,1125.6,449.1,1189.1z" opacity=".889"/><path fill="#030611" d="M455.7,1189.4c0,61.7,101.9,116.7,227.7,122.7c125.7,6,227.7-39.1,227.7-100.8s-101.9-116.7-227.7-122.7    C557.6,1082.5,455.7,1127.7,455.7,1189.4z" opacity=".926"/><path fill="#030611" d="M462.3,1189.7c0,59.9,99,113.3,221.1,119.1c122.1,5.9,221.1-38,221.1-97.9c0-59.9-99-113.3-221.1-119.1    C561.3,1085.9,462.3,1129.8,462.3,1189.7z" opacity=".963"/><path fill="#030611" d="M468.8,1190c0,58.2,96,109.9,214.5,115.6s214.5-36.9,214.5-95c0-58.2-96-109.9-214.5-115.6    C564.9,1089.3,468.8,1131.9,468.8,1190z"/></g><g opacity=".15"><path fill="#030611" d="M728.4,1740c0,147.5,243.6,278.8,544,293.2c300.4,14.4,544-93.5,544-241c0-147.5-243.6-278.8-544-293.2    C972,1484.6,728.4,1592.5,728.4,1740z" opacity="0"/><path fill="#030611" d="M737.6,1740.4c0,145,239.5,274.1,534.9,288.3c295.4,14.2,534.9-91.9,534.9-236.9s-239.5-274.1-534.9-288.3    S737.6,1595.4,737.6,1740.4z" opacity=".037"/><path fill="#030611" d="M746.7,1740.9c0,142.6,235.4,269.4,525.8,283.3c290.4,13.9,525.8-90.3,525.8-232.9    c0-142.6-235.4-269.4-525.8-283.3S746.7,1598.3,746.7,1740.9z" opacity=".074"/><path fill="#030611" d="M755.8,1741.3c0,140.1,231.3,264.7,516.7,278.4s516.7-88.8,516.7-228.8c0-140.1-231.3-264.7-516.7-278.4    S755.8,1601.2,755.8,1741.3z" opacity=".111"/><path fill="#030611" d="M764.9,1741.8c0,137.6,227.2,260.1,507.5,273.5c280.3,13.4,507.5-87.2,507.5-224.8    c0-137.6-227.2-260.1-507.5-273.5C992.1,1503.5,764.9,1604.1,764.9,1741.8z" opacity=".148"/><path fill="#030611" d="M774,1742.2c0,135.1,223.1,255.4,498.4,268.6c275.3,13.2,498.4-85.6,498.4-220.8    c0-135.1-223.1-255.4-498.4-268.6S774,1607.1,774,1742.2z" opacity=".185"/><path fill="#030611" d="M783.1,1742.6c0,132.7,219.1,250.7,489.3,263.7c270.2,13,489.3-84.1,489.3-216.7    c0-132.7-219.1-250.7-489.3-263.7S783.1,1610,783.1,1742.6z" opacity=".222"/><path fill="#030611" d="M792.3,1743.1c0,130.2,215,246.1,480.2,258.8c265.2,12.7,480.2-82.5,480.2-212.7    c0-130.2-215-246.1-480.2-258.8S792.3,1612.9,792.3,1743.1z" opacity=".259"/><path fill="#030611" d="M801.4,1743.5c0,127.7,210.9,241.4,471.1,253.9s471.1-80.9,471.1-208.7c0-127.7-210.9-241.4-471.1-253.9    S801.4,1615.8,801.4,1743.5z" opacity=".296"/><path fill="#030611" d="M810.5,1743.9c0,125.3,206.8,236.7,462,249c255.1,12.2,462-79.4,462-204.6c0-125.2-206.8-236.7-462-249    S810.5,1618.7,810.5,1743.9z" opacity=".333"/><path fill="#030611" d="M819.6,1744.4c0,122.8,202.7,232,452.8,244c250.1,12,452.8-77.8,452.8-200.6c0-122.8-202.7-232-452.8-244    C1022.4,1531.8,819.6,1621.6,819.6,1744.4z" opacity=".37"/><path fill="#030611" d="M828.7,1744.8c0,120.3,198.7,227.4,443.7,239.1c245.1,11.8,443.7-76.2,443.7-196.5    c0-120.3-198.7-227.4-443.7-239.1C1027.4,1536.5,828.7,1624.5,828.7,1744.8z" opacity=".407"/><path fill="#030611" d="M837.8,1745.3c0,117.8,194.6,222.7,434.6,234.2c240,11.5,434.6-74.7,434.6-192.5    c0-117.8-194.6-222.7-434.6-234.2C1032.4,1541.2,837.8,1627.4,837.8,1745.3z" opacity=".444"/><path fill="#030611" d="M847,1745.7c0,115.4,190.5,218,425.5,229.3c235,11.3,425.5-73.1,425.5-188.5c0-115.4-190.5-218-425.5-229.3    S847,1630.3,847,1745.7z" opacity=".481"/><path fill="#030611" d="M856.1,1746.1c0,112.9,186.4,213.4,416.4,224.4s416.4-71.5,416.4-184.4c0-112.9-186.4-213.4-416.4-224.4    C1042.5,1550.7,856.1,1633.2,856.1,1746.1z" opacity=".518"/><path fill="#030611" d="M865.2,1746.6c0,110.4,182.3,208.7,407.3,219.5c224.9,10.8,407.3-70,407.3-180.4    c0-110.4-182.3-208.7-407.3-219.5S865.2,1636.1,865.2,1746.6z" opacity=".556"/><path fill="#030611" d="M874.3,1747c0,107.9,178.3,204,398.1,214.6c219.9,10.6,398.1-68.4,398.1-176.4    c0-107.9-178.3-204-398.1-214.6C1052.6,1560.1,874.3,1639.1,874.3,1747z" opacity=".593"/><path fill="#030611" d="M883.4,1747.4c0,105.5,174.2,199.3,389,209.6s389-66.8,389-172.3s-174.2-199.3-389-209.6    C1057.6,1564.8,883.4,1642,883.4,1747.4z" opacity=".63"/><path fill="#030611" d="M892.5,1747.9c0,103,170.1,194.7,379.9,204.7s379.9-65.3,379.9-168.3c0-103-170.1-194.7-379.9-204.7    C1062.6,1569.5,892.5,1644.9,892.5,1747.9z" opacity=".667"/><path fill="#030611" d="M901.7,1748.3c0,100.5,166,190,370.8,199.8c204.8,9.8,370.8-63.7,370.8-164.2c0-100.5-166-190-370.8-199.8    S901.7,1647.8,901.7,1748.3z" opacity=".704"/><path fill="#030611" d="M910.8,1748.8c0,98.1,161.9,185.3,361.7,194.9s361.7-62.1,361.7-160.2c0-98.1-161.9-185.3-361.7-194.9    S910.8,1650.7,910.8,1748.8z" opacity=".741"/><path fill="#030611" d="M919.9,1749.2c0,95.6,157.8,180.7,352.6,190S1625,1878.6,1625,1783s-157.8-180.7-352.6-190    C1077.7,1583.7,919.9,1653.6,919.9,1749.2z" opacity=".778"/><path fill="#030611" d="M929,1749.6c0,93.1,153.8,176,343.4,185.1s343.4-59,343.4-152.1c0-93.1-153.8-176-343.4-185.1    C1082.8,1588.4,929,1656.5,929,1749.6z" opacity=".815"/><path fill="#030611" d="M938.1,1750.1c0,90.6,149.7,171.3,334.3,180.2s334.3-57.4,334.3-148.1c0-90.6-149.7-171.3-334.3-180.2    C1087.8,1593.1,938.1,1659.4,938.1,1750.1z" opacity=".852"/><path fill="#030611" d="M947.2,1750.5c0,88.2,145.6,166.6,325.2,175.3c179.6,8.6,325.2-55.9,325.2-144    c0-88.2-145.6-166.6-325.2-175.3S947.2,1662.3,947.2,1750.5z" opacity=".889"/><path fill="#030611" d="M956.4,1750.9c0,85.7,141.5,162,316.1,170.3s316.1-54.3,316.1-140c0-85.7-141.5-162-316.1-170.3    S956.4,1665.2,956.4,1750.9z" opacity=".926"/><path fill="#030611" d="M965.5,1751.4c0,83.2,137.4,157.3,307,165.4s307-52.7,307-136s-137.4-157.3-307-165.4    C1102.9,1607.3,965.5,1668.1,965.5,1751.4z" opacity=".963"/><path fill="#030611" d="M974.6,1751.8c0,80.8,133.4,152.6,297.9,160.5c164.5,7.9,297.9-51.2,297.9-131.9s-133.4-152.6-297.9-160.5    C1108,1612,974.6,1671.1,974.6,1751.8z"/></g><linearGradient id="a" x1="1817.378" x2="1399.212" y1="603.095" y2="1516.233" gradientUnits="userSpaceOnUse"><stop offset="0" stop-color="#465399"/><stop offset=".995" stop-color="#22a5c4"/></linearGradient><polygon fill="url(#a)" points="1302.7 332.1 2213.4 431.4 1887.7 1844.4 941.1 1612.6"/><linearGradient id="b" x1="1802.981" x2="1410.259" y1="631.428" y2="1489.006" gradientUnits="userSpaceOnUse"><stop offset="0" stop-color="#f7fbfe"/><stop offset="1" stop-color="#e3e8f6"/></linearGradient><polygon fill="url(#b)" points="990 1584.1 1331.5 374.8 2165.1 465.7 1858.4 1796.8"/><linearGradient id="c" x1="2240.597" x2="1868.787" y1="757.77" y2="1569.683" gradientUnits="userSpaceOnUse"><stop offset="0" stop-color="#628fc4"/><stop offset="1" stop-color="#414791"/></linearGradient><polygon fill="url(#c)" points="2213.4 431.4 2226.7 452 1911.8 1861.6 1887.7 1844.4"/><g opacity=".17"><path fill="#030611" d="M1343.8,790.3c-221.8,211.9-276.9,549.5-122.9,754.1s458.6,198.6,680.4-13.3s276.9-549.5,122.9-754.1    C1870.3,572.5,1565.7,578.4,1343.8,790.3z" opacity="0"/><path fill="#030611" d="M1342.6,794.2c-218.1,208.3-272.2,540.3-120.9,741.4s450.9,195.3,669-13s272.2-540.3,120.9-741.4    S1560.8,585.8,1342.6,794.2z" opacity=".037"/><path fill="#030611" d="M1341.4,798.1c-214.4,204.8-267.6,531.1-118.8,728.8c148.8,197.7,443.2,192,657.6-12.8    c214.4-204.8,267.6-531.1,118.8-728.8C1850.3,587.6,1555.8,593.3,1341.4,798.1z" opacity=".074"/><path fill="#030611" d="M1340.2,802c-210.7,201.2-263,521.9-116.8,716.2s435.5,188.7,646.2-12.6c210.7-201.2,263-521.9,116.8-716.2    S1550.9,600.8,1340.2,802z" opacity=".111"/><path fill="#030611" d="M1339,805.9c-207,197.7-258.3,512.7-114.7,703.5s427.8,185.3,634.8-12.4c207-197.7,258.3-512.7,114.7-703.5    S1546,608.2,1339,805.9z" opacity=".148"/><path fill="#030611" d="M1337.8,809.8c-203.3,194.1-253.7,503.5-112.6,690.9c141,187.4,420.2,182,623.4-12.1s253.7-503.5,112.6-690.9    C1820.2,610.2,1541.1,615.7,1337.8,809.8z" opacity=".185"/><path fill="#030611" d="M1336.6,813.7c-199.5,190.6-249,494.3-110.6,678.3s412.5,178.7,612-11.9s249-494.3,110.6-678.3    S1536.2,623.1,1336.6,813.7z" opacity=".222"/><path fill="#030611" d="M1335.4,817.6c-195.8,187-244.4,485-108.5,665.6c135.9,180.6,404.8,175.3,600.6-11.7    c195.8-187,244.4-485,108.5-665.6S1531.3,630.6,1335.4,817.6z" opacity=".259"/><path fill="#030611" d="M1334.2,821.5c-192.1,183.5-239.8,475.8-106.5,653s397.1,172,589.2-11.5s239.8-475.8,106.5-653    C1790.1,632.9,1526.3,638,1334.2,821.5z" opacity=".296"/><path fill="#030611" d="M1333,825.4c-188.4,179.9-235.1,466.6-104.4,640.3s389.4,168.7,577.8-11.3s235.1-466.6,104.4-640.3    S1521.4,645.5,1333,825.4z" opacity=".333"/><path fill="#030611" d="M1331.8,829.3c-184.7,176.4-230.5,457.4-102.3,627.7s381.7,165.3,566.4-11s230.5-457.4,102.3-627.7    S1516.5,652.9,1331.8,829.3z" opacity=".37"/><path fill="#030611" d="M1330.6,833.2c-180.9,172.8-225.8,448.2-100.3,615.1s374,162,555-10.8s225.8-448.2,100.3-615.1    S1511.6,660.4,1330.6,833.2z" opacity=".407"/><path fill="#030611" d="M1329.4,837.1c-177.2,169.3-221.2,439-98.2,602.4s366.4,158.7,543.6-10.6S1996,990,1873,826.5    S1506.7,667.8,1329.4,837.1z" opacity=".444"/><path fill="#030611" d="M1328.2,841c-173.5,165.7-216.6,429.8-96.2,589.8s358.7,155.4,532.2-10.4s216.6-429.8,96.2-589.8    C1740,670.7,1501.8,675.3,1328.2,841z" opacity=".481"/><path fill="#030611" d="M1327,844.9c-169.8,162.2-211.9,420.6-94.1,577.2s351,152,520.8-10.1s211.9-420.6,94.1-577.2    C1730,678.2,1496.8,682.8,1327,844.9z" opacity=".518"/><path fill="#030611" d="M1325.8,848.8c-166.1,158.6-207.3,411.4-92,564.5c115.2,153.1,343.3,148.7,509.4-9.9s207.3-411.4,92-564.5    S1491.9,690.2,1325.8,848.8z" opacity=".556"/><path fill="#030611" d="M1324.6,852.7c-162.4,155.1-202.6,402.2-90,551.9s335.6,145.4,498-9.7s202.6-402.2,90-551.9    S1487,697.7,1324.6,852.7z" opacity=".593"/><path fill="#030611" d="M1323.4,856.6c-158.6,151.5-198,393-87.9,539.2c110.1,146.3,327.9,142,486.6-9.5s198-393,87.9-539.2    S1482.1,705.1,1323.4,856.6z" opacity=".63"/><path fill="#030611" d="M1322.2,860.5c-154.9,148-193.4,383.7-85.8,526.6c107.5,142.9,320.2,138.7,475.2-9.3s193.4-383.7,85.8-526.6    C1689.9,708.4,1477.2,712.6,1322.2,860.5z" opacity=".667"/><path fill="#030611" d="M1321,864.4c-151.2,144.4-188.7,374.5-83.8,514s312.6,135.4,463.8-9s188.7-374.5,83.8-514    C1679.9,716,1472.3,720,1321,864.4z" opacity=".704"/><path fill="#030611" d="M1319.8,868.3c-147.5,140.9-184.1,365.3-81.7,501.3c102.3,136,304.9,132.1,452.4-8.8s184.1-365.3,81.7-501.3    C1669.9,723.5,1467.3,727.5,1319.8,868.3z" opacity=".741"/><path fill="#030611" d="M1318.6,872.3c-143.8,137.3-179.4,356.1-79.7,488.7c99.8,132.6,297.2,128.7,441-8.6s179.4-356.1,79.7-488.7    S1462.4,734.9,1318.6,872.3z" opacity=".778"/><path fill="#030611" d="M1317.5,876.2c-140.1,133.8-174.8,346.9-77.6,476.1s289.5,125.4,429.6-8.4s174.8-346.9,77.6-476.1    C1649.8,738.6,1457.5,742.4,1317.5,876.2z" opacity=".815"/><path fill="#030611" d="M1316.3,880.1c-136.3,130.2-170.2,337.7-75.5,463.4c94.6,125.7,281.8,122.1,418.2-8.1    c136.3-130.2,170.2-337.7,75.5-463.4S1452.6,749.8,1316.3,880.1z" opacity=".852"/><path fill="#030611" d="M1315.1,884c-132.6,126.7-165.5,328.5-73.5,450.8s274.1,118.7,406.8-7.9s165.5-328.5,73.5-450.8    S1447.7,757.3,1315.1,884z" opacity=".889"/><path fill="#030611" d="M1313.9,887.9C1185,1011,1153,1207.1,1242.4,1326c89.4,118.9,266.5,115.4,395.3-7.7    c128.9-123.1,160.9-319.3,71.4-438.1C1619.8,761.3,1442.7,764.7,1313.9,887.9z" opacity=".926"/><path fill="#030611" d="M1312.7,891.8c-125.2,119.6-156.2,310.1-69.4,425.5c86.9,115.4,258.8,112.1,383.9-7.5    s156.2-310.1,69.4-425.5C1609.7,768.9,1437.8,772.2,1312.7,891.8z" opacity=".963"/><path fill="#030611" d="M1311.5,895.7c-121.5,116-151.6,300.9-67.3,412.9c84.3,112,251.1,108.8,372.5-7.3    c121.5-116,151.6-300.9,67.3-412.9C1599.7,776.4,1432.9,779.7,1311.5,895.7z"/></g><linearGradient id="d" x1="1449.4" x2="1398.142" y1="1686.974" y2="1798.904" gradientUnits="userSpaceOnUse"><stop offset="0" stop-color="#628fc4"/><stop offset="1" stop-color="#414791"/></linearGradient><polygon fill="url(#d)" points="941.1 1612.6 1887.7 1844.4 1911.8 1861.6 955.3 1633.6"/><linearGradient id="e" x1="1905.785" x2="1492.644" y1="380.576" y2="346.787" gradientUnits="userSpaceOnUse"><stop offset="0" stop-color="#c46322"/><stop offset=".995" stop-color="#fe5a71"/></linearGradient><path fill="url(#e)" d="M1905.6,332.1l-69.7,6.8c0.1-1.2,0.2-2.5,0.2-3.7c0-44.4-37.5-76-83.8-70.6c-34.6,4-64.4,27.7-77.1,57.9    l-45.3-4.6c-21.1-2.1-40.5,11.6-45.4,32.2l-17.1,71.5c-0.5,2.2-12-14.1-11.7-12c1.1,6.9,18.1,31.1,25.5,32.1l322.4,43.9    l25.3-109.5C1932.2,361.7,1920.3,333.6,1905.6,332.1z M1752.3,395.5c-29.1,3.4-52.8-16.5-52.8-44.4c0-27.9,23.6-53.3,52.8-56.7    c29.1-3.4,52.8,16.5,52.8,44.4C1805,366.7,1781.4,392.1,1752.3,395.5z"/><linearGradient id="f" x1="1746.112" x2="1729.752" y1="294.37" y2="449.159" gradientUnits="userSpaceOnUse"><stop offset="0" stop-color="#fdae6e"/><stop offset=".995" stop-color="#fe5a71"/></linearGradient><path fill="url(#f)" d="M1896.3,328.4l-71.6-7.3c0.1-1.2,0.2-2.5,0.2-3.7c0-44.4-37.5-76-83.8-70.6c-34.6,4-64.4,27.7-77.1,57.9    l-45.3-4.6c-21.1-2.1-40.5,11.6-45.4,32.2l-17.1,71.5c-2.3,9.5,4.1,18.8,13.8,20.1l322.4,43.9l25.3-109.5    C1921,344,1910.9,329.9,1896.3,328.4z M1741,377.8c-29.1,3.4-52.8-16.5-52.8-44.4c0-27.9,23.6-53.3,52.8-56.7    c29.1-3.4,52.8,16.5,52.8,44.4C1793.8,349,1770.2,374.4,1741,377.8z"/><linearGradient id="g" x1="1607.036" x2="1638.776" y1="374.959" y2="242.122" gradientUnits="userSpaceOnUse"><stop offset="0" stop-color="#fdae6e"/><stop offset=".995" stop-color="#fff"/></linearGradient><path fill="url(#g)" d="M1616.3,302.9l45.3,4.6c0.4-1,1-1.9,1.4-2.8l-44.4-4.5c-14.3-1.5-27.7,4.5-36.4,14.9     C1590.9,306.3,1603.3,301.5,1616.3,302.9z"/><linearGradient id="h" x1="1718.215" x2="1749.955" y1="401.524" y2="268.687" gradientUnits="userSpaceOnUse"><stop offset="0" stop-color="#fdae6e"/><stop offset=".995" stop-color="#fff"/></linearGradient><path fill="url(#h)" d="M1685.9,336.1c0,27.9,23.6,47.8,52.8,44.4c15.5-1.8,29.3-9.9,38.9-21.3c-9.5,9.9-22.4,16.9-36.6,18.5     c-29.1,3.4-52.8-16.5-52.8-44.4c0-13.1,5.3-25.5,13.8-35.5C1692.2,308.2,1685.9,321.8,1685.9,336.1z"/><linearGradient id="i" x1="1774.893" x2="1806.633" y1="415.067" y2="282.23" gradientUnits="userSpaceOnUse"><stop offset="0" stop-color="#fdae6e"/><stop offset=".995" stop-color="#fff"/></linearGradient><path fill="url(#i)" d="M1896.3,328.4l-71.6-7.3c0.1-1.2,0.2-2.5,0.2-3.7c0-44.4-37.5-76-83.8-70.6c-26.2,3.1-49.5,17.3-64.9,37.2     c15.3-18.4,37.6-31.5,62.5-34.4c46.3-5.4,83.8,26.2,83.8,70.6c0,1.3-0.1,2.5-0.2,3.7l71.6,7.3c14.7,1.5,24.7,15.5,21.4,29.9     l-24.6,106.5l1.7,0.2l25.3-109.5C1921,344,1910.9,329.9,1896.3,328.4z"/><linearGradient id="j" x1="2004.359" x2="2003.655" y1="592.697" y2="588.914" gradientUnits="userSpaceOnUse"><stop offset="0" stop-color="#ebf0f9"/><stop offset=".995" stop-color="#fff"/></linearGradient><path fill="url(#j)" d="M2010,591.4l-12.2-1.8c4.1,0.5,7.3,1,9.7,1.3C2008.3,590.8,2009.2,591.1,2010,591.4z"/><linearGradient id="k" x1="1920.807" x2="1904.88" y1="600.188" y2="813.613" gradientUnits="userSpaceOnUse"><stop offset="0" stop-color="#fff"/><stop offset=".292" stop-color="#dfe2f3"/><stop offset="1" stop-color="#bcc2e6"/></linearGradient><path fill="url(#k)" d="M2057.2,847.3l-319.9-49c1.7-10.9,3.4-21.1,5.2-30.9c35.1-188,204.2-183.4,254.3-177.9l0.9,0.1l12.2,1.8   c0.3,0,0.7,0,0.9,0.1C2011,591.5,2129.6,593.2,2057.2,847.3z"/><linearGradient id="l" x1="1423.411" x2="1179.377" y1="1967.89" y2="657.617" gradientUnits="userSpaceOnUse"><stop offset="0" stop-color="#ebf0f9"/><stop offset=".995" stop-color="#fff"/></linearGradient><path fill="url(#l)" d="M1982.4,592.8l18.4,2.6c-50.1-5.5-219.2-10.1-254.3,177.9c-1.8,9.8-3.5,20.1-5.2,30.9   c-47.4,306.1-43.4,1015.1-521.8,1107.9c-10.7,2.1-21.8,1.3-32.3-1.8l-636.4-186.5c-10.5-3.1-9.4-18.1,1.4-19.8   c453.8-68.9,446.4-753,503.2-1031.2c50.5-247.8,268.3-175.8,268.3-175.8l658.6,95.7C1982.4,592.8,1982.4,592.8,1982.4,592.8z"/><linearGradient id="m" x1="1566.719" x2="1562.312" y1="694.753" y2="710.913" gradientTransform="rotate(-8.001 1955.618 1466.712)" gradientUnits="userSpaceOnUse"><stop offset="0" stop-color="#fbffff"/><stop offset="1" stop-color="#bcc2e6"/></linearGradient><path fill="url(#m)" d="M1575.7,790.9c-0.9,0.1-1.8,0.1-2.7,0l-224.8-33.9c-5.1-0.8-8.6-5.5-7.8-10.6c0.8-5.1,5.5-8.6,10.6-7.8     l224.8,33.9c5.1,0.8,8.6,5.5,7.8,10.6C1583,787.2,1579.7,790.3,1575.7,790.9z"/><linearGradient id="n" x1="1577.861" x2="1572.719" y1="775.157" y2="791.683" gradientTransform="rotate(-8.001 1955.618 1466.712)" gradientUnits="userSpaceOnUse"><stop offset="0" stop-color="#fbffff"/><stop offset="1" stop-color="#bcc2e6"/></linearGradient><path fill="url(#n)" d="M1636.9,875.1c-0.9,0.1-1.8,0.1-2.7,0l-303.3-45.8c-5.1-0.8-8.6-5.5-7.8-10.6c0.8-5.1,5.5-8.6,10.6-7.8     l303.3,45.8c5.1,0.8,8.6,5.5,7.8,10.6C1644.2,871.5,1640.9,874.6,1636.9,875.1z"/><linearGradient id="o" x1="1289.414" x2="1369.341" y1="662.108" y2="662.108" gradientTransform="rotate(-8.001 1955.618 1466.712)" gradientUnits="userSpaceOnUse"><stop offset="0" stop-color="#465399"/><stop offset=".995" stop-color="#22a5c4"/></linearGradient><circle cx="1223.5" cy="757.1" r="40" fill="url(#o)"/><linearGradient id="p" x1="1491.325" x2="1486.916" y1="900.223" y2="916.389" gradientTransform="rotate(-5.19 1951.637 1458.517)" gradientUnits="userSpaceOnUse"><stop offset="0" stop-color="#fbffff"/><stop offset="1" stop-color="#bcc2e6"/></linearGradient><path fill="url(#p)" d="M1553.6,984c-0.9,0.1-1.8,0-2.7-0.1l-222.8-44.9c-5-1-8.3-5.9-7.3-11c1-5,5.9-8.3,11-7.3l222.8,44.9     c5,1,8.3,5.9,7.3,11C1561,980.7,1557.6,983.7,1553.6,984z"/><linearGradient id="q" x1="1502.462" x2="1497.322" y1="980.636" y2="997.157" gradientTransform="rotate(-5.19 1951.637 1458.517)" gradientUnits="userSpaceOnUse"><stop offset="0" stop-color="#fbffff"/><stop offset="1" stop-color="#bcc2e6"/></linearGradient><path fill="url(#q)" d="M1610.5,1071.2c-0.9,0.1-1.8,0-2.7-0.1l-300.7-60.6c-5-1-8.3-5.9-7.3-11c1-5,5.9-8.3,11-7.3l300.7,60.6     c5,1,8.3,5.9,7.3,11C1618,1067.9,1614.5,1070.8,1610.5,1071.2z"/><linearGradient id="r" x1="1214.007" x2="1293.938" y1="867.571" y2="867.571" gradientTransform="rotate(-5.19 1951.637 1458.517)" gradientUnits="userSpaceOnUse"><stop offset="0" stop-color="#465399"/><stop offset=".995" stop-color="#22a5c4"/></linearGradient><circle cx="1203.5" cy="933" r="40" fill="url(#r)"/><linearGradient id="s" x1="1434.192" x2="1429.784" y1="1122.159" y2="1138.322" gradientTransform="rotate(-2.292 1967.642 1393.303)" gradientUnits="userSpaceOnUse"><stop offset="0" stop-color="#fbffff"/><stop offset="1" stop-color="#bcc2e6"/></linearGradient><path fill="url(#s)" d="M1532.3,1189.4c-0.9,0-1.8-0.1-2.7-0.3l-220.3-56c-5-1.3-8-6.3-6.7-11.3c1.3-5,6.3-8,11.3-6.7l220.3,56     c5,1.3,8,6.3,6.7,11.3C1539.9,1186.5,1536.3,1189.3,1532.3,1189.4z"/><linearGradient id="t" x1="1445.332" x2="1440.192" y1="1202.568" y2="1219.091" gradientTransform="rotate(-2.292 1967.642 1393.303)" gradientUnits="userSpaceOnUse"><stop offset="0" stop-color="#fbffff"/><stop offset="1" stop-color="#bcc2e6"/></linearGradient><path fill="url(#t)" d="M1584.8,1279.3c-0.9,0-1.8-0.1-2.7-0.3l-297.3-75.5c-5-1.3-8-6.3-6.7-11.3c1.3-5,6.3-8,11.3-6.7l297.3,75.5     c5,1.3,8,6.3,6.7,11.3C1592.4,1276.4,1588.8,1279.2,1584.8,1279.3z"/><linearGradient id="u" x1="1156.883" x2="1236.811" y1="1089.511" y2="1089.511" gradientTransform="rotate(-2.292 1967.642 1393.303)" gradientUnits="userSpaceOnUse"><stop offset="0" stop-color="#465399"/><stop offset=".995" stop-color="#22a5c4"/></linearGradient><circle cx="1185.1" cy="1121" r="40" fill="url(#u)"/><g><linearGradient id="v" x1="1369.287" x2="1364.88" y1="1317.289" y2="1333.448" gradientTransform="rotate(-1.238 2032.785 1225.683)" gradientUnits="userSpaceOnUse"><stop offset="0" stop-color="#fbffff"/><stop offset="1" stop-color="#bcc2e6"/></linearGradient><path fill="url(#v)" d="M1479.3,1379.1c-0.9,0-1.8-0.1-2.7-0.3l-219.2-60.1c-5-1.4-7.9-6.5-6.5-11.4c1.4-5,6.5-7.9,11.4-6.5     l219.2,60.1c5,1.4,7.9,6.5,6.5,11.4C1486.9,1376.3,1483.3,1379,1479.3,1379.1z"/><linearGradient id="w" x1="1380.427" x2="1375.285" y1="1397.691" y2="1414.218" gradientTransform="rotate(-1.238 2032.785 1225.683)" gradientUnits="userSpaceOnUse"><stop offset="0" stop-color="#fbffff"/><stop offset="1" stop-color="#bcc2e6"/></linearGradient><path fill="url(#w)" d="M1530,1470c-0.9,0-1.8-0.1-2.7-0.3l-295.8-81.2c-5-1.4-7.9-6.5-6.5-11.4c1.4-5,6.5-7.9,11.4-6.5l295.8,81.2     c5,1.4,7.9,6.5,6.5,11.4C1537.7,1467.2,1534.1,1469.9,1530,1470z"/><linearGradient id="x" x1="1091.982" x2="1171.909" y1="1284.644" y2="1284.644" gradientTransform="rotate(-1.238 2032.785 1225.683)" gradientUnits="userSpaceOnUse"><stop offset="0" stop-color="#465399"/><stop offset=".995" stop-color="#22a5c4"/></linearGradient><circle cx="1133.5" cy="1304.1" r="40" fill="url(#x)"/></g><g><linearGradient id="y" x1="1286.467" x2="1282.058" y1="1519.596" y2="1535.763" gradientTransform="rotate(1.748 1798.365 1819.764)" gradientUnits="userSpaceOnUse"><stop offset="0" stop-color="#fbffff"/><stop offset="1" stop-color="#bcc2e6"/></linearGradient><path fill="url(#y)" d="M1401,1557.1c-0.9,0-1.8-0.2-2.6-0.5l-215.8-71.5c-4.9-1.6-7.5-6.9-5.9-11.8c1.6-4.9,6.9-7.5,11.8-5.9     l215.8,71.5c4.9,1.6,7.5,6.9,5.9,11.8C1408.8,1554.7,1405,1557.2,1401,1557.1z"/><linearGradient id="z" x1="1297.604" x2="1292.465" y1="1600.014" y2="1616.532" gradientTransform="rotate(1.748 1798.365 1819.764)" gradientUnits="userSpaceOnUse"><stop offset="0" stop-color="#fbffff"/><stop offset="1" stop-color="#bcc2e6"/></linearGradient><path fill="url(#z)" d="M1447,1650.5c-0.9,0-1.8-0.2-2.6-0.5l-291.2-96.5c-4.9-1.6-7.5-6.9-5.9-11.8c1.6-4.9,6.9-7.5,11.8-5.9     l291.2,96.5c4.9,1.6,7.5,6.9,5.9,11.8C1454.8,1648.1,1451,1650.6,1447,1650.5z"/><linearGradient id="A" x1="1009.139" x2="1089.073" y1="1486.941" y2="1486.941" gradientTransform="rotate(1.748 1798.365 1819.764)" gradientUnits="userSpaceOnUse"><stop offset="0" stop-color="#465399"/><stop offset=".995" stop-color="#22a5c4"/></linearGradient><circle cx="1059.6" cy="1464.2" r="40" fill="url(#A)"/></g><g><linearGradient id="B" x1="1190.455" x2="1186.047" y1="1643.586" y2="1659.749" gradientTransform="matrix(1 -.0077 .0077 1 -3.143 17.744)" gradientUnits="userSpaceOnUse"><stop offset="0" stop-color="#fbffff"/><stop offset="1" stop-color="#bcc2e6"/></linearGradient><path fill="url(#B)" d="M1307.1,1701.1c-0.9,0-1.8-0.1-2.7-0.4l-218.4-63.2c-4.9-1.4-7.8-6.6-6.4-11.5c1.4-4.9,6.6-7.8,11.5-6.4     l218.4,63.2c4.9,1.4,7.8,6.6,6.4,11.5C1314.8,1698.5,1311.1,1701.1,1307.1,1701.1z"/><linearGradient id="C" x1="1201.598" x2="1196.457" y1="1723.995" y2="1740.518" gradientTransform="matrix(1 -.0077 .0077 1 -3.143 17.744)" gradientUnits="userSpaceOnUse"><stop offset="0" stop-color="#fbffff"/><stop offset="1" stop-color="#bcc2e6"/></linearGradient><path fill="url(#C)" d="M1356.6,1792.7c-0.9,0-1.8-0.1-2.7-0.4l-294.7-85.3c-4.9-1.4-7.8-6.6-6.4-11.5c1.4-4.9,6.6-7.8,11.5-6.4     l294.7,85.3c4.9,1.4,7.8,6.6,6.4,11.5C1364.3,1790,1360.6,1792.7,1356.6,1792.7z"/><linearGradient id="D" x1="913.137" x2="993.068" y1="1610.935" y2="1610.935" gradientTransform="matrix(1 -.0077 .0077 1 -3.143 17.744)" gradientUnits="userSpaceOnUse"><stop offset="0" stop-color="#465399"/><stop offset=".995" stop-color="#22a5c4"/></linearGradient><circle cx="962.4" cy="1621.3" r="40" fill="url(#D)"/></g><g><linearGradient id="E" x1="690.08" x2="622.389" y1="663.411" y2="1015.406" gradientTransform="matrix(.9927 -.056 0 1 14.923 112.192)" gradientUnits="userSpaceOnUse"><stop offset="0" stop-color="#465399"/><stop offset=".995" stop-color="#22a5c4"/></linearGradient><path fill="url(#E)" d="M547.4,648.5l367.4,36.3c27.3,4.8,49.6,60.4,42.4,88.1l-99,382c-7.6,29.2-37.3,47.8-65.6,41l-363.2-87    c-22.7-5.4-57.2-44.6-50.9-68l124.3-363.3C508.2,657.9,527.8,645,547.4,648.5z"/><linearGradient id="F" x1="656.305" x2="642.291" y1="1138.474" y2="563.922" gradientTransform="matrix(.9927 -.056 0 1 14.923 112.192)" gradientUnits="userSpaceOnUse"><stop offset="0" stop-color="#465399"/><stop offset=".995" stop-color="#22a5c4"/></linearGradient><path fill="url(#F)" d="M527.2,614.5l373,65.1c27.3,4.8,44,31.7,36.8,59.3l-99,382c-7.6,29.2-37.3,47.8-65.6,41l-363.2-87    c-22.7-5.4-35.9-28.5-29.5-51.9l103-379.4C488,624,507.6,611.1,527.2,614.5z"/><polygon fill="#fff" points="512.3 799.4 554.4 1005.4 854.4 920.9 831.6 857.9 615.8 918.5 577.2 775.7"/><linearGradient id="G" x1="695.091" x2="656.5" y1="1163.762" y2="855.035" gradientUnits="userSpaceOnUse"><stop offset="0" stop-color="#fff"/><stop offset=".995" stop-color="#22a5c4"/></linearGradient><path fill="url(#G)" d="M933.5,704.8c3.8,9.3,4.8,19.9,2,30.8l-99,382c-7.6,29.2-37.3,47.8-65.6,41l-363.2-87    c-7.9-1.9-14.4-6-19.5-11.4c-0.5-0.5-1-1-1.5-1.5c-0.3-0.4-0.6-0.7-0.9-1.1c-0.9-1.1-1.9-2.1-2.8-3.2    c5.2,10.1,14.4,17.8,26.3,20.7l363.2,87c28.4,6.8,58.1-11.7,65.6-41l99-382C940.2,726.8,938.5,714.8,933.5,704.8z"/></g><g><g opacity=".1"><path fill="#030611" d="M1838.6,1261.4c0,106.2,175.4,200.8,391.8,211.2c216.4,10.4,391.8-67.3,391.8-173.6     c0-106.2-175.4-200.8-391.8-211.2C2014.1,1077.4,1838.6,1155.1,1838.6,1261.4z" opacity="0"/><path fill="#030611" d="M1845.2,1261.7c0,104.5,172.5,197.4,385.3,207.6s385.3-66.2,385.3-170.6c0-104.5-172.5-197.4-385.3-207.6     C2017.7,1080.8,1845.2,1157.2,1845.2,1261.7z" opacity=".037"/><path fill="#030611" d="M1851.8,1262c0,102.7,169.5,194,378.7,204.1c209.1,10,378.7-65.1,378.7-167.7c0-102.7-169.5-194-378.7-204.1     C2021.3,1084.2,1851.8,1159.3,1851.8,1262z" opacity=".074"/><path fill="#030611" d="M1858.3,1262.3c0,100.9,166.6,190.7,372.1,200.5c205.5,9.9,372.1-63.9,372.1-164.8     c0-100.9-166.6-190.7-372.1-200.5S1858.3,1161.4,1858.3,1262.3z" opacity=".111"/><path fill="#030611" d="M1864.9,1262.6c0,99.1,163.7,187.3,365.6,197c201.9,9.7,365.6-62.8,365.6-161.9     c0-99.1-163.7-187.3-365.6-197C2028.6,1091,1864.9,1163.5,1864.9,1262.6z" opacity=".148"/><path fill="#030611" d="M1871.5,1262.9c0,97.3,160.7,183.9,359,193.5c198.3,9.5,359-61.7,359-159s-160.7-183.9-359-193.5     C2032.2,1094.4,1871.5,1165.6,1871.5,1262.9z" opacity=".185"/><path fill="#030611" d="M1878,1263.3c0,95.6,157.8,180.6,352.4,189.9c194.6,9.3,352.4-60.5,352.4-156.1     c0-95.6-157.8-180.6-352.4-189.9C2035.8,1097.8,1878,1167.7,1878,1263.3z" opacity=".222"/><path fill="#030611" d="M1884.6,1263.6c0,93.8,154.8,177.2,345.9,186.4c191,9.2,345.9-59.4,345.9-153.2     c0-93.8-154.8-177.2-345.9-186.4C2039.4,1101.2,1884.6,1169.8,1884.6,1263.6z" opacity=".259"/><path fill="#030611" d="M1891.2,1263.9c0,92,151.9,173.9,339.3,182.8c187.4,9,339.3-58.3,339.3-150.3c0-92-151.9-173.9-339.3-182.8     C2043.1,1104.6,1891.2,1171.9,1891.2,1263.9z" opacity=".296"/><path fill="#030611" d="M1897.7,1264.2c0,90.2,149,170.5,332.7,179.3c183.8,8.8,332.7-57.2,332.7-147.4     c0-90.2-149-170.5-332.7-179.3S1897.7,1174,1897.7,1264.2z" opacity=".333"/><path fill="#030611" d="M1904.3,1264.5c0,88.4,146,167.1,326.2,175.8c180.1,8.6,326.2-56,326.2-144.5c0-88.4-146-167.1-326.2-175.8     C2050.3,1111.4,1904.3,1176.1,1904.3,1264.5z" opacity=".37"/><path fill="#030611" d="M1910.9,1264.8c0,86.6,143.1,163.8,319.6,172.2c176.5,8.5,319.6-54.9,319.6-141.6     c0-86.6-143.1-163.8-319.6-172.2C2053.9,1114.8,1910.9,1178.2,1910.9,1264.8z" opacity=".407"/><path fill="#030611" d="M1917.4,1265.1c0,84.9,140.1,160.4,313,168.7c172.9,8.3,313-53.8,313-138.7c0-84.9-140.1-160.4-313-168.7     C2057.6,1118.2,1917.4,1180.3,1917.4,1265.1z" opacity=".444"/><path fill="#030611" d="M1924,1265.5c0,83.1,137.2,157,306.5,165.2c169.3,8.1,306.5-52.7,306.5-135.7s-137.2-157-306.5-165.2     C2061.2,1121.6,1924,1182.4,1924,1265.5z" opacity=".481"/><path fill="#030611" d="M1930.6,1265.8c0,81.3,134.3,153.7,299.9,161.6c165.6,7.9,299.9-51.5,299.9-132.8     c0-81.3-134.3-153.7-299.9-161.6C2064.8,1125,1930.6,1184.5,1930.6,1265.8z" opacity=".518"/><path fill="#030611" d="M1937.1,1266.1c0,79.5,131.3,150.3,293.3,158.1c162,7.8,293.3-50.4,293.3-129.9     c0-79.5-131.3-150.3-293.3-158.1S1937.1,1186.6,1937.1,1266.1z" opacity=".556"/><path fill="#030611" d="M1943.7,1266.4c0,77.7,128.4,146.9,286.8,154.5s286.8-49.3,286.8-127s-128.4-146.9-286.8-154.5     C2072.1,1131.8,1943.7,1188.7,1943.7,1266.4z" opacity=".593"/><path fill="#030611" d="M1950.3,1266.7c0,76,125.4,143.6,280.2,151c154.7,7.4,280.2-48.1,280.2-124.1c0-76-125.4-143.6-280.2-151     C2075.7,1135.2,1950.3,1190.8,1950.3,1266.7z" opacity=".63"/><path fill="#030611" d="M1956.8,1267c0,74.2,122.5,140.2,273.6,147.5c151.1,7.3,273.6-47,273.6-121.2     c0-74.2-122.5-140.2-273.6-147.5C2079.3,1138.6,1956.8,1192.8,1956.8,1267z" opacity=".667"/><path fill="#030611" d="M1963.4,1267.3c0,72.4,119.6,136.8,267.1,143.9c147.5,7.1,267.1-45.9,267.1-118.3     c0-72.4-119.6-136.8-267.1-143.9C2083,1142,1963.4,1194.9,1963.4,1267.3z" opacity=".704"/><path fill="#030611" d="M1970,1267.7c0,70.6,116.6,133.5,260.5,140.4c143.9,6.9,260.5-44.8,260.5-115.4     c0-70.6-116.6-133.5-260.5-140.4C2086.6,1145.4,1970,1197,1970,1267.7z" opacity=".741"/><path fill="#030611" d="M1976.5,1268c0,68.8,113.7,130.1,253.9,136.8c140.2,6.7,253.9-43.6,253.9-112.5s-113.7-130.1-253.9-136.8     C2090.2,1148.8,1976.5,1199.1,1976.5,1268z" opacity=".778"/><path fill="#030611" d="M1983.1,1268.3c0,67.1,110.7,126.7,247.4,133.3s247.4-42.5,247.4-109.6c0-67.1-110.7-126.7-247.4-133.3     C2093.8,1152.2,1983.1,1201.2,1983.1,1268.3z" opacity=".815"/><path fill="#030611" d="M1989.7,1268.6c0,65.3,107.8,123.4,240.8,129.8s240.8-41.4,240.8-106.7c0-65.3-107.8-123.4-240.8-129.8     C2097.5,1155.6,1989.7,1203.3,1989.7,1268.6z" opacity=".852"/><path fill="#030611" d="M1996.2,1268.9c0,63.5,104.9,120,234.2,126.2c129.4,6.2,234.2-40.2,234.2-103.7     c0-63.5-104.9-120-234.2-126.2C2101.1,1159,1996.2,1205.4,1996.2,1268.9z" opacity=".889"/><path fill="#030611" d="M2002.8,1269.2c0,61.7,101.9,116.7,227.7,122.7s227.7-39.1,227.7-100.8s-101.9-116.7-227.7-122.7     C2104.7,1162.4,2002.8,1207.5,2002.8,1269.2z" opacity=".926"/><path fill="#030611" d="M2009.4,1269.6c0,59.9,99,113.3,221.1,119.1c122.1,5.9,221.1-38,221.1-97.9c0-59.9-99-113.3-221.1-119.1     C2108.3,1165.8,2009.4,1209.6,2009.4,1269.6z" opacity=".963"/><path fill="#030611" d="M2015.9,1269.9c0,58.2,96,109.9,214.5,115.6c118.5,5.7,214.5-36.9,214.5-95s-96-109.9-214.5-115.6     C2112,1169.2,2015.9,1211.7,2015.9,1269.9z"/></g><linearGradient id="H" x1="1970.787" x2="1865.521" y1="536.473" y2="549.593" gradientTransform="rotate(36.031 1902.982 1310.68)" gradientUnits="userSpaceOnUse"><stop offset="0" stop-color="#b27e4f"/><stop offset=".359" stop-color="#ffe5b6"/><stop offset="1" stop-color="#ad7c52"/></linearGradient><path fill="url(#H)" d="M2418.8,660.1c-26.6-19.3-63.8-13.5-83.1,13.1c-19.3,26.6-13.5,63.8,13.1,83.1    c26.6,19.3,63.8,13.5,83.1-13.1C2451.3,716.7,2445.4,679.4,2418.8,660.1z M2361.1,739.4c-17.2-12.5-21-36.7-8.5-53.9    c12.5-17.2,36.7-21,53.9-8.5c17.2,12.5,21,36.7,8.5,53.9C2402.5,748.1,2378.4,752,2361.1,739.4z"/><linearGradient id="I" x1="2142.884" x2="1763.928" y1="817.286" y2="817.286" gradientTransform="rotate(36.031 1902.982 1310.68)" gradientUnits="userSpaceOnUse"><stop offset="0" stop-color="#b27e4f"/><stop offset=".359" stop-color="#ffe5b6"/><stop offset="1" stop-color="#ad7c52"/></linearGradient><path fill="url(#I)" d="M2434.8,904.4c17.3-56.2-3.7-111.8-24.4-148.6c-16.9-30.1-46.2-51.3-80-58.2    c-41.3-8.4-100.7-11.3-148.8,22.6c-83,58.2-119.8,192.4-259.4,217.5l143.4,208.2l242.2,72.3    C2288.6,1077.6,2404.9,1001.3,2434.8,904.4z"/><linearGradient id="J" x1="2090.672" x2="1606.56" y1="1025.188" y2="1085.523" gradientTransform="rotate(36.031 1902.982 1310.68)" gradientUnits="userSpaceOnUse"><stop offset="0" stop-color="#b27e4f"/><stop offset=".359" stop-color="#ffe5b6"/><stop offset="1" stop-color="#ad7c52"/></linearGradient><path fill="url(#J)" d="M2310,1277.3c-52.9,72.7-195.3,59.2-318.2-30.2s-179.6-220.7-126.7-293.4c52.9-72.7,195.3-59.2,318.2,30.2     C2306.1,1073.3,2362.9,1204.7,2310,1277.3z"/><linearGradient id="K" x1="2148.848" x2="1715.808" y1="1068.406" y2="1068.406" gradientTransform="rotate(36.031 1902.982 1310.68)" gradientUnits="userSpaceOnUse"><stop offset="0" stop-color="#b27e4f"/><stop offset=".359" stop-color="#ffe5b6"/><stop offset="1" stop-color="#ad7c52"/></linearGradient><path fill="url(#K)" d="M2295.8,1296.8c-52.9,72.7-195.3,59.2-318.2-30.2s-179.6-220.7-126.7-293.4     c52.9-72.7,195.3-59.2,318.2,30.2C2291.9,1092.8,2348.7,1224.2,2295.8,1296.8z"/><linearGradient id="L" x1="1768.283" x2="2163.996" y1="963.703" y2="1208.583" gradientTransform="rotate(36.031 1902.982 1310.68)" gradientUnits="userSpaceOnUse"><stop offset="0" stop-color="#b27e4f"/><stop offset=".359" stop-color="#ffe5b6"/><stop offset="1" stop-color="#ad7c52"/></linearGradient><path fill="url(#L)" d="M2273.8,1280.9c-47.7,65.5-176,53.3-286.7-27.2c-110.7-80.5-161.9-198.8-114.2-264.4     c30.8-42.3,95.1-52.2,166.7-32.3c39.3,10.9,80.7,30.9,120,59.5c38.8,28.2,70.4,61.2,92.9,94.8     C2294.1,1173.5,2304.8,1238.3,2273.8,1280.9z"/><radialGradient id="M" cx="1971.178" cy="1297.405" r="13.831" gradientTransform="matrix(6.5028 4.7297 -4.7296 6.5028 -4580.686 -16670.549)" gradientUnits="userSpaceOnUse"><stop offset="0" stop-color="#ffe5b6"/><stop offset="1" stop-color="#ad7c52"/></radialGradient><path fill="url(#M)" d="M2063.5,1155.6c-50.8-30.8-65.5-99.3-33-153c9.7-15.9,22.4-28.7,36.9-38.1c29.7,8.3,61,23.4,90.6,44.9     c29.3,21.3,53.2,46.2,70.1,71.6c-2.8,11.3-7.4,22.5-13.8,33C2181.7,1167.8,2114.2,1186.4,2063.5,1155.6z"/></g><g><linearGradient id="N" x1="2341.285" x2="2060.686" y1="1605.765" y2="1961.975" gradientUnits="userSpaceOnUse"><stop offset="0" stop-color="#fdae6e"/><stop offset=".995" stop-color="#fe5a71"/></linearGradient><path fill="url(#N)" d="M2468.9,1667.2l-492.3-140.8c-43.3-12.4-88.3,13.6-99.2,57.3l-74.9,300.8c-6.3,25.2,7.3,51.1,31.6,60.2    l69.7,26.2l-56.9,228.9l20.2,28l216.3-189.5l282.8,106.2c26.1,9.8,54.9-5.6,61.2-32.7l86-369    C2521,1709.8,2501.5,1676.5,2468.9,1667.2z"/><linearGradient id="O" x1="1780.753" x2="2494.828" y1="1847.562" y2="1847.562" gradientUnits="userSpaceOnUse"><stop offset="0" stop-color="#fdae6e"/><stop offset=".995" stop-color="#fe5a71"/></linearGradient><path fill="url(#O)" d="M2448.7,1639.2l-492.3-140.8c-43.3-12.4-88.3,13.6-99.2,57.3l-74.9,300.8c-6.3,25.2,7.3,51.1,31.6,60.2    l69.7,26.2l-36.7,257l216.3-189.5l282.8,106.2c26.1,9.8,54.9-5.6,61.2-32.7l86-369C2500.9,1681.7,2481.3,1648.5,2448.7,1639.2z"/><circle cx="2005.1" cy="1734.4" r="42" fill="#fff"/><circle cx="2137.8" cy="1776.4" r="42" fill="#fff"/><circle cx="2270.5" cy="1818.4" r="42" fill="#fff"/></g><g><linearGradient id="P" x1="3018.95" x2="2805.649" y1="619.506" y2="890.284" gradientTransform="rotate(-163.658 1911.415 1567.231) skewX(.007)" gradientUnits="userSpaceOnUse"><stop offset="0" stop-color="#fdae6e"/><stop offset=".995" stop-color="#fe5a71"/></linearGradient><path fill="url(#P)" d="M431.1,1993.5L1146,2203l56.2-191.8l-714.9-209.5c-20.1-5.9-48.9,32.3-64.5,85.3    C407.3,1939.9,411,1987.6,431.1,1993.5z"/><linearGradient id="Q" x1="955.769" x2="955.769" y1="1789.887" y2="2155.742" gradientTransform="rotate(-2.866 1919.577 1547.717)" gradientUnits="userSpaceOnUse"><stop offset="0" stop-color="#465399"/><stop offset=".995" stop-color="#22a5c4"/></linearGradient><path fill="url(#Q)" d="M1373.3,2061.3l-18.2,62.1l-8,27.3l-30,102.6l-714.9-209.6c-17.7-5.3-22.7-42.7-13-87.7    c1.3-6.1,2.9-12.5,4.8-18.9c2.7-9.3,5.9-18.3,9.3-26.6c16.2-38.6,38.7-63.6,55.1-58.7L1373.3,2061.3z"/><linearGradient id="R" x1="956.384" x2="956.384" y1="1905.439" y2="2155.16" gradientTransform="rotate(-2.866 1919.577 1547.717)" gradientUnits="userSpaceOnUse"><stop offset="0" stop-color="#fbffff"/><stop offset="1" stop-color="#bcc2e6"/></linearGradient><path fill="url(#R)" d="M1370.7,2127.8l-23.5,22.8l-21.4,20.8L589.2,1956c1.3-6.1,2.9-12.5,4.8-18.9c2.7-9.3,5.9-18.3,9.3-26.6    l751.9,212.8L1370.7,2127.8z"/><linearGradient id="S" x1="2207.131" x2="2207.131" y1="783.04" y2="951.292" gradientTransform="rotate(-163.658 1911.415 1567.231) skewX(.007)" gradientUnits="userSpaceOnUse"><stop offset="0" stop-color="#fff"/><stop offset=".292" stop-color="#dfe2f3"/><stop offset="1" stop-color="#bcc2e6"/></linearGradient><path fill="url(#S)" d="M1317.2,2253.2c4.6,1.4,9.7,0.3,15-2.7l206-36.7l-153.6-142.1c-2.9-5.3-6.6-9-11.2-10.3    c-20.1-5.9-48.9,32.3-64.5,85.3C1293.4,2199.6,1297.1,2247.3,1317.2,2253.2z"/><linearGradient id="T" x1="1454.617" x2="1454.617" y1="2143.942" y2="2210.263" gradientTransform="rotate(-2.866 1919.577 1547.717)" gradientUnits="userSpaceOnUse"><stop offset="0" stop-color="#fdae6e"/><stop offset=".995" stop-color="#fe5a71"/></linearGradient><path fill="url(#T)" d="M1470.3,2151c0,0-21.6,7.9-29.7,30.2c-8.1,22.3-1.5,50.3-1.5,50.3l99.1-17.7L1470.3,2151z"/></g></svg>